# xmcd
#
# Track frame offsets:
#	150
#	17490
#	35953
#	50770
#	67374
#	85023
#	103976
#	119051
#	137048
#	158573
#	174998
#	192173
#	212573
#	234098
#	251498
#	284048
#
# Disc length: 3799 seconds
#
# Revision: 3
# Processed by: cddbd v1.5.2PL0 Copyright (c) Steve Scherf et al.
# Submitted via: audiograbber 1.83.01
#
DISCID=ec0ed510
DTITLE=Sound Choice - SC8833
DYEAR=1900
DGENRE=
TTITLE0=Kenny Chesney - No Shoes No Shirt No Problem
TTITLE1=Wynonna Judd - What The World Needs
TTITLE2=Rachel Proctor - Days Like This
TTITLE3=Deana Carter - I'm Just A Girl
TTITLE4=Clay Walker - A Few Questions
TTITLE5=Dierks Bentley - What Was I Thinkin'
TTITLE6=Dwight Yoakam - The Back Of Your Hand
TTITLE7=Buddy Jewell - Help Pour Out The Rain (Lacey's Song)
TTITLE8=Dixie Chicks - Godspeed (Sweet Dreams)
TTITLE9=Rushlow - I Can't Be Your Friend
TTITLE10=Darryl Worley - I Need A Breather
TTITLE11=Pat Green - Wave On Wave
TTITLE12=Sherrie Austin - Streets Of Heaven
TTITLE13=Billy Currington - Walk A Little Straighter
TTITLE14=Keith Urban - Who Wouldn't Wanna Be Me
TTITLE15=x - Data Track
EXTD=
EXTT0=
EXTT1=
EXTT2=
EXTT3=
EXTT4=
EXTT5=
EXTT6=
EXTT7=
EXTT8=
EXTT9=
EXTT10=
EXTT11=
EXTT12=
EXTT13=
EXTT14=
EXTT15=
PLAYORDER=
